<?xml version="1.0" encoding="utf-8"?>
<!-- Generator: Adobe Illustrator 21.0.2, SVG Export Plug-In . SVG Version: 6.00 Build 0)  -->
<svg version="1.1" id="Layer_1" xmlns="http://www.w3.org/2000/svg" xmlns:xlink="http://www.w3.org/1999/xlink" x="0px" y="0px"
	 viewBox="0 0 288 560" style="enable-background:new 0 0 288 560;" xml:space="preserve">
<style type="text/css">
	.st0{fill:#FFFFFF;stroke:#000000;stroke-miterlimit:10;}
</style>
<path class="st0" d="M131,144.7H70.3c-7.2,0-13-5.8-13-13V71c0-7.2,5.8-13,13-13H131c7.2,0,13,5.8,13,13v60.7
	C144,138.9,138.2,144.7,131,144.7z"/>
<g>
	<g>
		<g id="post-linkedin_1_">
			<path d="M135.3,58H66c-4.8,0-8.7,3.9-8.7,8.7V136c0,4.8,3.9,8.7,8.7,8.7h69.3c4.8,0,8.7-3.9,8.7-8.7V66.7
				C144,61.9,140.1,58,135.3,58z M83.3,131.7h-13v-39h13V131.7z M76.8,85.3c-4.3,0-7.8-3.5-7.8-7.8s3.5-7.8,7.8-7.8
				c4.3,0,7.8,3.5,7.8,7.8C84.6,81.8,81.2,85.3,76.8,85.3z M131,131.7h-13v-23c0-3.5-3-6.5-6.5-6.5c-3.5,0-6.5,3-6.5,6.5v23H92v-39
				h13v5.2c2.2-3.5,6.9-6.1,10.8-6.1c8.2,0,15.2,6.9,15.2,15.2V131.7z"/>
		</g>
	</g>
	<g>
	</g>
	<g>
	</g>
	<g>
	</g>
	<g>
	</g>
	<g>
	</g>
	<g>
	</g>
	<g>
	</g>
	<g>
	</g>
	<g>
	</g>
	<g>
	</g>
	<g>
	</g>
	<g>
	</g>
	<g>
	</g>
	<g>
	</g>
	<g>
	</g>
</g>
</svg>
